HIERARCHY
ROOT Hips
{
	OFFSET 0.000000 0.000000 0.000000
	CHANNELS 6 Xposition Yposition Zposition Zrotation Yrotation Xrotation 
	JOINT LHipJoint
	{
		OFFSET 0.000000 0.000000 0.000000
		CHANNELS 3 Zrotation Yrotation Xrotation
		JOINT LeftUpLeg
		{
			OFFSET 1.363060 -1.794630 0.839290
			CHANNELS 3 Zrotation Yrotation Xrotation
			JOINT LeftLeg
			{
				OFFSET 2.448110 -6.726130 0.000000
				CHANNELS 3 Zrotation Yrotation Xrotation
				JOINT LeftFoot
				{
					OFFSET 2.562200 -7.039590 0.000000
					CHANNELS 3 Zrotation Yrotation Xrotation
					JOINT LeftToeBase
					{
						OFFSET 0.157640 -0.433110 2.322550
						CHANNELS 3 Zrotation Yrotation Xrotation
						End Site
						{
							OFFSET 0.000000 0.000000 0.000000
						}
					}
				}
			}
		}
	}
	JOINT RHipJoint
	{
		OFFSET 0.000000 0.000000 0.000000
		CHANNELS 3 Zrotation Yrotation Xrotation
		JOINT RightUpLeg
		{
			OFFSET -1.305520 -1.794630 0.839290
			CHANNELS 3 Zrotation Yrotation Xrotation
			JOINT RightLeg
			{
				OFFSET -2.542530 -6.985550 0.000000
				CHANNELS 3 Zrotation Yrotation Xrotation
				JOINT RightFoot
				{
					OFFSET -2.568260 -7.056230 0.000000
					CHANNELS 3 Zrotation Yrotation Xrotation
					JOINT RightToeBase
					{
						OFFSET -0.164730 -0.452590 2.363150
						CHANNELS 3 Zrotation Yrotation Xrotation
						End Site
						{
							OFFSET 0.000000 0.000000 0.000000
						}
					}
				}
			}
		}
	}
	JOINT LowerBack
	{
		OFFSET 0.000000 0.000000 0.000000
		CHANNELS 3 Zrotation Yrotation Xrotation
		JOINT Spine
		{
			OFFSET 0.028270 2.035590 -0.193380
			CHANNELS 3 Zrotation Yrotation Xrotation
			JOINT Spine1
			{
				OFFSET 0.056720 2.048850 -0.042750
				CHANNELS 3 Zrotation Yrotation Xrotation
				JOINT Neck
				{
					OFFSET 0.000000 0.000000 0.000000
					CHANNELS 3 Zrotation Yrotation Xrotation
					JOINT Neck1
					{
						OFFSET -0.054170 1.746240 0.172020
						CHANNELS 3 Zrotation Yrotation Xrotation
						JOINT Head
						{
							OFFSET 0.104070 1.761360 -0.123970
							CHANNELS 3 Zrotation Yrotation Xrotation
							End Site
							{
								OFFSET 0.000000 0.000000 0.000000
							}
						}
					}
				}
				JOINT LeftShoulder
				{
					OFFSET 0.000000 0.000000 0.000000
					CHANNELS 3 Zrotation Yrotation Xrotation
					JOINT LeftArm
					{
						OFFSET 3.362410 1.200890 -0.311210
						CHANNELS 3 Zrotation Yrotation Xrotation
						JOINT LeftForeArm
						{
							OFFSET 4.983000 -0.000000 -0.000000
							CHANNELS 3 Zrotation Yrotation Xrotation
							JOINT LeftHand
							{
								OFFSET 3.483560 -0.000000 -0.000000
								CHANNELS 3 Zrotation Yrotation Xrotation
								JOINT LeftFingerBase
								{
									OFFSET 0.000000 0.000000 0.000000
									CHANNELS 3 Zrotation Yrotation Xrotation
									JOINT LeftHandIndex1
									{
										OFFSET 0.715260 -0.000000 -0.000000
										CHANNELS 3 Zrotation Yrotation Xrotation
										End Site
										{
											OFFSET 0.000000 0.000000 0.000000
										}
									}
								}
								JOINT LThumb
								{
									OFFSET 0.000000 0.000000 0.000000
									CHANNELS 3 Zrotation Yrotation Xrotation
									End Site
									{
										OFFSET 0.000000 0.000000 0.000000
									}
								}
							}
						}
					}
				}
				JOINT RightShoulder
				{
					OFFSET 0.000000 0.000000 0.000000
					CHANNELS 3 Zrotation Yrotation Xrotation
					JOINT RightArm
					{
						OFFSET -3.136600 1.374050 -0.404650
						CHANNELS 3 Zrotation Yrotation Xrotation
						JOINT RightForeArm
						{
							OFFSET -5.241900 -0.000000 -0.000000
							CHANNELS 3 Zrotation Yrotation Xrotation
							JOINT RightHand
							{
								OFFSET -3.444170 -0.000000 -0.000000
								CHANNELS 3 Zrotation Yrotation Xrotation
								JOINT RightFingerBase
								{
									OFFSET 0.000000 0.000000 0.000000
									CHANNELS 3 Zrotation Yrotation Xrotation
									JOINT RightHandIndex1
									{
										OFFSET -0.622530 -0.000000 -0.000000
										CHANNELS 3 Zrotation Yrotation Xrotation
										End Site
										{
											OFFSET 0.000000 0.000000 0.000000
										}
									}
								}
								JOINT RThumb
								{
									OFFSET 0.000000 0.000000 0.000000
									CHANNELS 3 Zrotation Yrotation Xrotation
									End Site
									{
										OFFSET 0.000000 0.000000 0.000000
									}
								}
							}
						}
					}
				}
			}
		}
	}
}
MOTION
Frames: 10
Frame Time: 0.008333
16.402557 17.479250 -6.047737 -78.362316 -87.900088 74.879792 3.840133 0.624636 -1.096179 -15.988940 7.051667 0.406441 9.256338 16.635500 55.200615 -0.318805 8.964158 18.598152 0.066500 -1.663800 -4.577400 -2.625615 0.267447 -0.426163 28.767628 8.522050 -10.312021 -1.272420 -9.721921 26.715987 1.017599 -7.388528 -8.859324 -0.173300 -2.681700 7.393900 3.115313 -1.814309 0.522771 1.391984 -2.256070 -1.501246 -2.671656 -1.102299 2.024179 -0.438144 0.791494 -6.823220 6.041788 0.189852 6.017977 -0.228300 0.253400 2.280900 -4.896088 -4.831798 0.748247 -79.864401 6.259235 21.671773 10.830160 -21.594092 -3.109153 -1.055016 -1.219366 -16.647786 16.047944 13.900746 4.548700 -7.125000 0.000000 0.000000 -9.431600 45.140400 -0.033000 6.918693 4.590984 0.480004 77.526727 -4.968951 20.712647 -10.827388 22.121064 -2.997962 1.116379 0.063486 3.248596 -18.074203 -8.048510 2.817100 7.125000 0.000000 0.000000 6.610800 -38.503000 1.063400 
16.264081 17.487134 -6.064126 -78.551605 -87.738298 74.992986 3.898675 0.605965 -1.115897 -16.022414 6.174224 -0.726236 9.588864 16.902352 56.475236 -0.352686 8.179759 17.135596 0.101900 -2.058500 -5.667300 -2.647627 0.241739 -0.420582 29.120037 8.107307 -9.719337 -1.245051 -9.634892 26.520319 1.004446 -7.322041 -8.852503 -0.181100 -2.741300 7.559400 3.305007 -1.750959 0.623841 1.400692 -2.175196 -1.482993 -2.708446 -1.057422 2.029177 -0.438682 0.727967 -6.783628 6.061128 0.103845 6.008419 -0.213600 0.210700 2.264000 -4.886681 -4.832098 0.750061 -79.890663 6.219281 21.809823 10.991825 -21.779297 -3.164394 -1.045568 -1.215322 -16.832442 16.018729 13.784424 4.502300 -7.125000 0.000000 0.000000 -9.435300 45.012500 -0.002900 6.918480 4.592776 0.484603 77.491345 -4.905516 20.935405 -11.008980 22.340302 -3.061421 1.115421 0.077917 3.091684 -17.975616 -8.211235 2.860700 7.125000 0.000000 0.000000 6.720700 -38.677900 1.052200 
16.126953 17.492216 -6.080204 -79.044000 -87.565595 75.407903 3.950311 0.587649 -1.129081 -16.028881 5.313960 -1.835596 9.880592 17.135170 57.594038 -0.383360 7.424100 15.585558 0.141700 -2.426100 -6.684900 -2.672240 0.214949 -0.416246 29.486346 7.716942 -9.129100 -1.220754 -9.555412 26.342890 0.989523 -7.249818 -8.850709 -0.197100 -2.858800 7.885900 3.504429 -1.685076 0.728257 1.409753 -2.090352 -1.465687 -2.746978 -1.011231 2.027064 -0.436100 0.664292 -6.736786 6.083849 0.017123 6.002806 -0.197300 0.168000 2.248100 -4.877551 -4.833352 0.751824 -79.904416 6.185276 21.966270 11.161346 -21.973846 -3.222688 -1.033068 -1.212466 -17.018447 15.939082 13.668906 4.442600 -7.125000 0.000000 0.000000 -9.488000 44.881600 0.028000 6.918846 4.594595 0.489247 77.455124 -4.832206 21.152336 -11.176402 22.541113 -3.119925 1.113874 0.089840 2.946118 -17.886244 -8.338745 2.892300 7.125000 0.000000 0.000000 6.818400 -38.813900 1.044800 
15.991070 17.495432 -6.096385 -79.756312 -87.395937 76.046401 3.995807 0.569255 -1.135957 -16.026035 4.474211 -2.924423 10.130572 17.336358 58.555924 -0.412645 6.724357 13.946356 0.188300 -2.795100 -7.708700 -2.698640 0.188087 -0.413517 29.851767 7.358924 -8.559528 -1.201423 -9.487003 26.192215 0.985952 -7.225922 -8.837093 -0.210900 -2.956600 8.157900 3.694188 -1.618605 0.829432 1.418949 -2.004349 -1.448952 -2.778723 -0.965249 2.024427 -0.435520 0.604669 -6.691058 6.111483 -0.064417 6.002330 -0.178200 0.128400 2.235700 -4.868862 -4.835027 0.753381 -79.908939 6.153389 22.131045 11.336459 -22.175484 -3.283679 -1.018832 -1.210438 -17.196847 15.828268 13.558268 4.376400 -7.125000 0.000000 0.000000 -9.572100 44.753900 0.058700 6.919884 4.596150 0.494269 77.416816 -4.739589 21.363851 -11.326213 22.718436 -3.172000 1.111567 0.098580 2.815470 -17.809156 -8.420514 2.909000 7.125000 0.000000 0.000000 6.899400 -38.899900 1.042700 
15.856431 17.495536 -6.112256 -80.683812 -87.235074 76.903647 4.035333 0.549970 -1.136518 -16.020083 3.660547 -3.996359 10.341953 17.509756 59.367572 -0.440474 6.127049 12.289585 0.232500 -3.103200 -8.566200 -2.726921 0.160713 -0.411906 30.211961 7.030379 -8.010062 -1.188478 -9.433089 26.079612 0.981642 -7.202191 -8.837589 -0.227900 -3.072600 8.481100 3.870398 -1.551567 0.929579 1.427457 -1.916374 -1.433774 -2.804413 -0.919263 2.017105 -0.439235 0.549086 -6.647089 6.144271 -0.140424 6.009181 -0.155200 0.092000 2.228700 -4.860704 -4.837508 0.754318 -79.903831 6.128671 22.305359 11.516973 -22.383751 -3.347238 -1.003508 -1.208091 -17.368814 15.700579 13.437720 4.303000 -7.125000 0.000000 0.000000 -9.670100 44.614400 0.092900 6.920651 4.598051 0.499064 77.379485 -4.634141 21.567891 -11.461953 22.876746 -3.218786 1.108507 0.103556 2.698699 -17.751442 -8.450645 2.910100 7.125000 0.000000 0.000000 6.956300 -38.929800 1.046200 
15.722934 17.492942 -6.127919 -81.843512 -87.089487 77.997977 4.068760 0.528815 -1.131384 -16.016192 2.878421 -5.052944 10.514981 17.657256 60.029182 -0.467849 5.663285 10.687607 0.266900 -3.323600 -9.181100 -2.756991 0.132649 -0.411433 30.562045 6.730845 -7.486280 -1.182644 -9.395757 26.011903 0.974982 -7.176061 -8.872229 -0.243200 -3.173400 8.761800 4.025985 -1.482810 1.024323 1.434687 -1.825224 -1.419443 -2.823331 -0.872815 2.010376 -0.445925 0.498708 -6.607726 6.181155 -0.209316 6.025930 -0.129600 0.060000 2.229000 -4.853187 -4.840039 0.754671 -79.887402 6.112269 22.492720 11.703933 -22.600857 -3.414176 -0.988686 -1.205750 -17.538361 15.584043 13.315861 4.233000 -7.125000 0.000000 0.000000 -9.757200 44.475100 0.127700 6.921157 4.599660 0.503691 77.345023 -4.513181 21.765623 -11.582602 23.015297 -3.260103 1.105928 0.106084 2.591586 -17.718845 -8.456734 2.906500 7.125000 0.000000 0.000000 6.987300 -38.934100 1.050200 
15.590474 17.487860 -6.143270 -83.143773 -86.970429 79.240573 4.097723 0.505800 -1.120529 -16.031556 2.119523 -6.093055 10.648928 17.780616 60.542561 -0.497713 5.344520 9.172197 0.287000 -3.445200 -9.520900 -2.787481 0.104475 -0.411778 30.888110 6.471737 -6.985061 -1.184082 -9.374885 25.989336 0.965298 -7.146773 -8.962060 -0.254800 -3.247900 8.969800 4.152056 -1.413443 1.114332 1.438976 -1.731599 -1.407018 -2.839120 -0.826041 2.000733 -0.453850 0.453403 -6.575845 6.219304 -0.271031 6.052056 -0.103200 0.032200 2.237500 -4.846491 -4.843017 0.754173 -79.858612 6.106099 22.685725 11.895299 -22.824008 -3.484087 -0.975115 -1.202765 -17.696882 15.489572 13.187880 4.167500 -7.125000 0.000000 0.000000 -9.821800 44.331700 0.163700 6.920187 4.601886 0.507616 77.319148 -4.381417 21.951802 -11.692705 23.139488 -3.297657 1.103642 0.106370 2.492927 -17.706573 -8.442606 2.898900 7.125000 0.000000 0.000000 6.997200 -38.916700 1.054700 
15.459051 17.480806 -6.158103 -84.523258 -86.879966 80.571107 4.123235 0.481068 -1.104793 -16.071799 1.381794 -7.116909 10.742706 17.881468 60.910521 -0.530544 5.157153 7.763467 0.296000 -3.498300 -9.669300 -2.817555 0.076684 -0.413189 31.184754 6.247608 -6.506886 -1.192489 -9.369697 26.011242 0.950805 -7.110794 -9.120981 -0.259600 -3.277900 9.053300 4.248470 -1.343910 1.196846 1.439662 -1.636442 -1.395613 -2.855849 -0.779204 1.994746 -0.458643 0.412363 -6.561431 6.256016 -0.326746 6.088490 -0.078300 0.008000 2.257200 -4.840899 -4.845777 0.752951 -79.813348 6.104584 22.889062 12.091827 -23.053882 -3.557260 -0.963395 -1.199737 -17.851065 15.427221 13.061565 4.111600 -7.125000 0.000000 0.000000 -9.856100 44.193200 0.198300 6.917455 4.604830 0.510647 77.306717 -4.239341 22.124687 -11.796148 23.254245 -3.332910 1.101676 0.104192 2.393059 -17.720175 -8.405183 2.886900 7.125000 0.000000 0.000000 6.980800 -38.874100 1.059600 
15.328250 17.472508 -6.172210 -85.946943 -86.807222 81.955523 4.145528 0.454944 -1.084791 -16.125585 0.659888 -8.123641 10.795881 17.960555 61.137226 -0.566196 5.079056 6.461484 0.297400 -3.506900 -9.693200 -2.846822 0.049763 -0.415436 31.461996 6.062203 -6.047506 -1.207241 -9.379129 26.073792 0.932939 -7.075320 -9.353194 -0.255800 -3.254100 8.987100 4.330211 -1.275626 1.272733 1.437287 -1.541889 -1.385810 -2.879918 -0.733055 1.989670 -0.454667 0.378084 -6.563339 6.288245 -0.373286 6.130452 -0.057800 -0.011100 2.285100 -4.836085 -4.848707 0.751190 -79.752519 6.109243 23.094827 12.291696 -23.287678 -3.633209 -0.953173 -1.196532 -17.992823 15.389089 12.935798 4.062600 -7.125000 0.000000 0.000000 -9.867500 44.057900 0.231800 6.913193 4.608763 0.512841 77.305884 -4.089378 22.287050 -11.896500 23.364456 -3.367244 1.100051 0.100731 2.292604 -17.747693 -8.360393 2.874300 7.125000 0.000000 0.000000 6.950900 -38.823600 1.063600 
15.198072 17.462758 -6.185487 -87.324266 -86.747371 83.301500 4.166106 0.428257 -1.061453 -16.193521 -0.057672 -9.110641 10.809450 18.019587 61.233905 -0.604656 5.073972 5.169056 0.315400 -3.610400 -9.983000 -2.874883 0.024330 -0.418750 31.719853 5.904793 -5.600779 -1.227660 -9.400829 26.172408 0.907579 -7.020820 -9.644168 -0.247700 -3.202500 8.843100 4.404869 -1.210525 1.341386 1.432393 -1.451173 -1.376963 -2.913579 -0.688894 1.987554 -0.443639 0.350568 -6.580167 6.314433 -0.410596 6.174613 -0.041700 -0.025600 2.318500 -4.832322 -4.851503 0.749379 -79.678253 6.114232 23.299210 12.489988 -23.518649 -3.709525 -0.944449 -1.193396 -18.123348 15.372486 12.814302 4.020800 -7.125000 0.000000 0.000000 -9.859700 43.929200 0.263300 6.907421 4.613450 0.514302 77.316196 -3.938428 22.444486 -11.999848 23.477921 -3.403032 1.098746 0.096582 2.177792 -17.787845 -8.311613 2.862100 7.125000 0.000000 0.000000 6.909200 -38.768800 1.066500 
